<svg width="17" height="15" viewBox="0 0 17 15" fill="none" xmlns="http://www.w3.org/2000/svg">
<path d="M1.754 14.5L12.626 1.09H15.146L4.274 14.5H1.754ZM3.842 7.894C3.182 7.894 2.582 7.738 2.042 7.426C1.514 7.102 1.094 6.676 0.782 6.148C0.47 5.62 0.314 5.032 0.314 4.384C0.314 3.736 0.47 3.148 0.782 2.62C1.094 2.08 1.514 1.654 2.042 1.342C2.582 1.03 3.182 0.873999 3.842 0.873999C4.514 0.873999 5.114 1.03 5.642 1.342C6.17 1.654 6.59 2.08 6.902 2.62C7.214 3.148 7.37 3.736 7.37 4.384C7.37 5.032 7.214 5.62 6.902 6.148C6.59 6.676 6.17 7.102 5.642 7.426C5.114 7.738 4.514 7.894 3.842 7.894ZM3.842 6.076C4.202 6.076 4.502 5.998 4.742 5.842C4.982 5.674 5.162 5.464 5.282 5.212C5.414 4.948 5.48 4.672 5.48 4.384C5.48 4.084 5.414 3.808 5.282 3.556C5.162 3.304 4.982 3.094 4.742 2.926C4.502 2.758 4.202 2.674 3.842 2.674C3.506 2.674 3.212 2.758 2.96 2.926C2.72 3.094 2.534 3.31 2.402 3.574C2.27 3.826 2.204 4.096 2.204 4.384C2.204 4.66 2.27 4.93 2.402 5.194C2.534 5.458 2.72 5.674 2.96 5.842C3.212 5.998 3.506 6.076 3.842 6.076ZM12.986 14.716C12.326 14.716 11.726 14.56 11.186 14.248C10.658 13.924 10.238 13.498 9.926 12.97C9.614 12.442 9.458 11.854 9.458 11.206C9.458 10.558 9.614 9.97 9.926 9.442C10.238 8.902 10.658 8.476 11.186 8.164C11.726 7.852 12.326 7.696 12.986 7.696C13.658 7.696 14.258 7.852 14.786 8.164C15.314 8.476 15.734 8.902 16.046 9.442C16.358 9.97 16.514 10.558 16.514 11.206C16.514 11.854 16.358 12.442 16.046 12.97C15.734 13.498 15.314 13.924 14.786 14.248C14.258 14.56 13.658 14.716 12.986 14.716ZM12.986 12.898C13.334 12.898 13.628 12.82 13.868 12.664C14.12 12.496 14.306 12.286 14.426 12.034C14.558 11.77 14.624 11.494 14.624 11.206C14.624 10.906 14.558 10.63 14.426 10.378C14.306 10.126 14.12 9.916 13.868 9.748C13.628 9.58 13.334 9.496 12.986 9.496C12.65 9.496 12.356 9.58 12.104 9.748C11.864 9.916 11.678 10.132 11.546 10.396C11.414 10.648 11.348 10.918 11.348 11.206C11.348 11.482 11.414 11.752 11.546 12.016C11.678 12.28 11.864 12.496 12.104 12.664C12.356 12.82 12.65 12.898 12.986 12.898Z" fill="#4E6E7E"/>
</svg>
